<svg width="122" height="114" viewBox="0 0 122 114" fill="none" xmlns="http://www.w3.org/2000/svg">
<g filter="url(#filter0_d_209_206)">
<rect x="39" y="22" width="53" height="14" rx="2" fill="url(#paint0_linear_209_206)"/>
</g>
<path d="M49.832 30.404L49.157 28.655C49.137 28.603 49.116 28.543 49.094 28.475C49.072 28.405 49.051 28.331 49.031 28.253C48.989 28.415 48.946 28.55 48.902 28.658L48.227 30.404H49.832ZM51.044 32H50.594C50.542 32 50.5 31.987 50.468 31.961C50.436 31.935 50.412 31.902 50.396 31.862L49.994 30.824H48.065L47.663 31.862C47.651 31.898 47.628 31.93 47.594 31.958C47.56 31.986 47.518 32 47.468 32H47.018L48.737 27.701H49.325L51.044 32ZM53.8991 29.684C53.7991 29.55 53.6911 29.457 53.5751 29.405C53.4591 29.351 53.3291 29.324 53.1851 29.324C52.9031 29.324 52.6861 29.425 52.5341 29.627C52.3821 29.829 52.3061 30.117 52.3061 30.491C52.3061 30.689 52.3231 30.859 52.3571 31.001C52.3911 31.141 52.4411 31.257 52.5071 31.349C52.5731 31.439 52.6541 31.505 52.7501 31.547C52.8461 31.589 52.9551 31.61 53.0771 31.61C53.2531 31.61 53.4061 31.57 53.5361 31.49C53.6681 31.41 53.7891 31.297 53.8991 31.151V29.684ZM54.4331 27.581V32H54.1151C54.0391 32 53.9911 31.963 53.9711 31.889L53.9231 31.52C53.7931 31.676 53.6451 31.802 53.4791 31.898C53.3131 31.994 53.1211 32.042 52.9031 32.042C52.7291 32.042 52.5711 32.009 52.4291 31.943C52.2871 31.875 52.1661 31.776 52.0661 31.646C51.9661 31.516 51.8891 31.354 51.8351 31.16C51.7811 30.966 51.7541 30.743 51.7541 30.491C51.7541 30.267 51.7841 30.059 51.8441 29.867C51.9041 29.673 51.9901 29.505 52.1021 29.363C52.2141 29.221 52.3511 29.11 52.5131 29.03C52.6771 28.948 52.8611 28.907 53.0651 28.907C53.2511 28.907 53.4101 28.939 53.5421 29.003C53.6761 29.065 53.7951 29.152 53.8991 29.264V27.581H54.4331ZM57.7565 29.684C57.6565 29.55 57.5485 29.457 57.4325 29.405C57.3165 29.351 57.1865 29.324 57.0425 29.324C56.7605 29.324 56.5435 29.425 56.3915 29.627C56.2395 29.829 56.1635 30.117 56.1635 30.491C56.1635 30.689 56.1805 30.859 56.2145 31.001C56.2485 31.141 56.2985 31.257 56.3645 31.349C56.4305 31.439 56.5115 31.505 56.6075 31.547C56.7035 31.589 56.8125 31.61 56.9345 31.61C57.1105 31.61 57.2635 31.57 57.3935 31.49C57.5255 31.41 57.6465 31.297 57.7565 31.151V29.684ZM58.2905 27.581V32H57.9725C57.8965 32 57.8485 31.963 57.8285 31.889L57.7805 31.52C57.6505 31.676 57.5025 31.802 57.3365 31.898C57.1705 31.994 56.9785 32.042 56.7605 32.042C56.5865 32.042 56.4285 32.009 56.2865 31.943C56.1445 31.875 56.0235 31.776 55.9235 31.646C55.8235 31.516 55.7465 31.354 55.6925 31.16C55.6385 30.966 55.6115 30.743 55.6115 30.491C55.6115 30.267 55.6415 30.059 55.7015 29.867C55.7615 29.673 55.8475 29.505 55.9595 29.363C56.0715 29.221 56.2085 29.11 56.3705 29.03C56.5345 28.948 56.7185 28.907 56.9225 28.907C57.1085 28.907 57.2675 28.939 57.3995 29.003C57.5335 29.065 57.6525 29.152 57.7565 29.264V27.581H58.2905ZM64.5205 28.19H63.1285V32H62.5495V28.19H61.1545V27.701H64.5205V28.19ZM66.081 28.913C66.303 28.913 66.503 28.95 66.681 29.024C66.859 29.098 67.011 29.203 67.137 29.339C67.263 29.475 67.359 29.64 67.425 29.834C67.493 30.026 67.527 30.241 67.527 30.479C67.527 30.719 67.493 30.935 67.425 31.127C67.359 31.319 67.263 31.483 67.137 31.619C67.011 31.755 66.859 31.86 66.681 31.934C66.503 32.006 66.303 32.042 66.081 32.042C65.857 32.042 65.655 32.006 65.475 31.934C65.297 31.86 65.145 31.755 65.019 31.619C64.893 31.483 64.796 31.319 64.728 31.127C64.662 30.935 64.629 30.719 64.629 30.479C64.629 30.241 64.662 30.026 64.728 29.834C64.796 29.64 64.893 29.475 65.019 29.339C65.145 29.203 65.297 29.098 65.475 29.024C65.655 28.95 65.857 28.913 66.081 28.913ZM66.081 31.625C66.381 31.625 66.605 31.525 66.753 31.325C66.901 31.123 66.975 30.842 66.975 30.482C66.975 30.12 66.901 29.838 66.753 29.636C66.605 29.434 66.381 29.333 66.081 29.333C65.929 29.333 65.796 29.359 65.682 29.411C65.57 29.463 65.476 29.538 65.4 29.636C65.326 29.734 65.27 29.855 65.232 29.999C65.196 30.141 65.178 30.302 65.178 30.482C65.178 30.842 65.252 31.123 65.4 31.325C65.55 31.525 65.777 31.625 66.081 31.625ZM73.8834 31.112C73.9154 31.112 73.9434 31.125 73.9674 31.151L74.1984 31.4C74.0224 31.604 73.8084 31.763 73.5564 31.877C73.3064 31.991 73.0034 32.048 72.6474 32.048C72.3394 32.048 72.0594 31.995 71.8074 31.889C71.5554 31.781 71.3404 31.631 71.1624 31.439C70.9844 31.245 70.8464 31.013 70.7484 30.743C70.6504 30.473 70.6014 30.176 70.6014 29.852C70.6014 29.528 70.6524 29.231 70.7544 28.961C70.8564 28.691 70.9994 28.459 71.1834 28.265C71.3694 28.071 71.5914 27.921 71.8494 27.815C72.1074 27.707 72.3924 27.653 72.7044 27.653C73.0104 27.653 73.2804 27.702 73.5144 27.8C73.7484 27.898 73.9544 28.031 74.1324 28.199L73.9404 28.466C73.9284 28.486 73.9124 28.503 73.8924 28.517C73.8744 28.529 73.8494 28.535 73.8174 28.535C73.7814 28.535 73.7374 28.516 73.6854 28.478C73.6334 28.438 73.5654 28.394 73.4814 28.346C73.3974 28.298 73.2924 28.255 73.1664 28.217C73.0404 28.177 72.8854 28.157 72.7014 28.157C72.4794 28.157 72.2764 28.196 72.0924 28.274C71.9084 28.35 71.7494 28.461 71.6154 28.607C71.4834 28.753 71.3804 28.931 71.3064 29.141C71.2324 29.351 71.1954 29.588 71.1954 29.852C71.1954 30.12 71.2334 30.359 71.3094 30.569C71.3874 30.779 71.4924 30.957 71.6244 31.103C71.7584 31.247 71.9154 31.357 72.0954 31.433C72.2774 31.509 72.4734 31.547 72.6834 31.547C72.8114 31.547 72.9264 31.54 73.0284 31.526C73.1324 31.51 73.2274 31.486 73.3134 31.454C73.4014 31.422 73.4824 31.382 73.5564 31.334C73.6324 31.284 73.7074 31.225 73.7814 31.157C73.8154 31.127 73.8494 31.112 73.8834 31.112ZM76.8942 30.632C76.6482 30.64 76.4382 30.66 76.2642 30.692C76.0922 30.722 75.9512 30.762 75.8412 30.812C75.7332 30.862 75.6542 30.921 75.6042 30.989C75.5562 31.057 75.5322 31.133 75.5322 31.217C75.5322 31.297 75.5452 31.366 75.5712 31.424C75.5972 31.482 75.6322 31.53 75.6762 31.568C75.7222 31.604 75.7752 31.631 75.8352 31.649C75.8972 31.665 75.9632 31.673 76.0332 31.673C76.1272 31.673 76.2132 31.664 76.2912 31.646C76.3692 31.626 76.4422 31.598 76.5102 31.562C76.5802 31.526 76.6462 31.483 76.7082 31.433C76.7722 31.383 76.8342 31.326 76.8942 31.262V30.632ZM75.1692 29.39C75.3372 29.228 75.5182 29.107 75.7122 29.027C75.9062 28.947 76.1212 28.907 76.3572 28.907C76.5272 28.907 76.6782 28.935 76.8102 28.991C76.9422 29.047 77.0532 29.125 77.1432 29.225C77.2332 29.325 77.3012 29.446 77.3472 29.588C77.3932 29.73 77.4162 29.886 77.4162 30.056V32H77.1792C77.1272 32 77.0872 31.992 77.0592 31.976C77.0312 31.958 77.0092 31.924 76.9932 31.874L76.9332 31.586C76.8532 31.66 76.7752 31.726 76.6992 31.784C76.6232 31.84 76.5432 31.888 76.4592 31.928C76.3752 31.966 76.2852 31.995 76.1892 32.015C76.0952 32.037 75.9902 32.048 75.8742 32.048C75.7562 32.048 75.6452 32.032 75.5412 32C75.4372 31.966 75.3462 31.916 75.2682 31.85C75.1922 31.784 75.1312 31.701 75.0852 31.601C75.0412 31.499 75.0192 31.379 75.0192 31.241C75.0192 31.121 75.0522 31.006 75.1182 30.896C75.1842 30.784 75.2912 30.685 75.4392 30.599C75.5872 30.513 75.7802 30.443 76.0182 30.389C76.2562 30.333 76.5482 30.301 76.8942 30.293V30.056C76.8942 29.82 76.8432 29.642 76.7412 29.522C76.6392 29.4 76.4902 29.339 76.2942 29.339C76.1622 29.339 76.0512 29.356 75.9612 29.39C75.8732 29.422 75.7962 29.459 75.7302 29.501C75.6662 29.541 75.6102 29.578 75.5622 29.612C75.5162 29.644 75.4702 29.66 75.4242 29.66C75.3882 29.66 75.3572 29.651 75.3312 29.633C75.3052 29.613 75.2832 29.589 75.2652 29.561L75.1692 29.39ZM79.2366 29.57C79.3326 29.362 79.4506 29.2 79.5906 29.084C79.7306 28.966 79.9016 28.907 80.1036 28.907C80.1676 28.907 80.2286 28.914 80.2866 28.928C80.3466 28.942 80.3996 28.964 80.4456 28.994L80.4066 29.393C80.3946 29.443 80.3646 29.468 80.3166 29.468C80.2886 29.468 80.2476 29.462 80.1936 29.45C80.1396 29.438 80.0786 29.432 80.0106 29.432C79.9146 29.432 79.8286 29.446 79.7526 29.474C79.6786 29.502 79.6116 29.544 79.5516 29.6C79.4936 29.654 79.4406 29.722 79.3926 29.804C79.3466 29.884 79.3046 29.976 79.2666 30.08V32H78.7296V28.961H79.0356C79.0936 28.961 79.1336 28.972 79.1556 28.994C79.1776 29.016 79.1926 29.054 79.2006 29.108L79.2366 29.57ZM82.3482 32.048C82.1082 32.048 81.9232 31.981 81.7932 31.847C81.6652 31.713 81.6012 31.52 81.6012 31.268V29.408H81.2352C81.2032 29.408 81.1762 29.399 81.1542 29.381C81.1322 29.361 81.1212 29.331 81.1212 29.291V29.078L81.6192 29.015L81.7422 28.076C81.7482 28.046 81.7612 28.022 81.7812 28.004C81.8032 27.984 81.8312 27.974 81.8652 27.974H82.1352V29.021H83.0142V29.408H82.1352V31.232C82.1352 31.36 82.1662 31.455 82.2282 31.517C82.2902 31.579 82.3702 31.61 82.4682 31.61C82.5242 31.61 82.5722 31.603 82.6122 31.589C82.6542 31.573 82.6902 31.556 82.7202 31.538C82.7502 31.52 82.7752 31.504 82.7952 31.49C82.8172 31.474 82.8362 31.466 82.8522 31.466C82.8802 31.466 82.9052 31.483 82.9272 31.517L83.0832 31.772C82.9912 31.858 82.8802 31.926 82.7502 31.976C82.6202 32.024 82.4862 32.048 82.3482 32.048Z" fill="white"/>
<defs>
<filter id="filter0_d_209_206" x="0" y="0" width="153" height="114" filterUnits="userSpaceOnUse" color-interpolation-filters="sRGB">
<feFlood flood-opacity="0" result="BackgroundImageFix"/>
<feColorMatrix in="SourceAlpha" type="matrix" values="0 0 0 0 0 0 0 0 0 0 0 0 0 0 0 0 0 0 127 0" result="hardAlpha"/>
<feOffset dx="11" dy="28"/>
<feGaussianBlur stdDeviation="25"/>
<feColorMatrix type="matrix" values="0 0 0 0 0.0784314 0 0 0 0 0.305882 0 0 0 0 0.352941 0 0 0 0.2 0"/>
<feBlend mode="normal" in2="BackgroundImageFix" result="effect1_dropShadow_209_206"/>
<feBlend mode="normal" in="SourceGraphic" in2="effect1_dropShadow_209_206" result="shape"/>
</filter>
<linearGradient id="paint0_linear_209_206" x1="65.5" y1="22" x2="65.5" y2="36" gradientUnits="userSpaceOnUse">
<stop stop-color="#53E88B"/>
<stop offset="1" stop-color="#15BE77"/>
</linearGradient>
</defs>
</svg>
