<svg width="24" height="21" viewBox="0 0 24 21" fill="none" xmlns="http://www.w3.org/2000/svg">
<path d="M5.743 16.64C6.227 16.596 6.65233 16.4933 7.019 16.332C7.38567 16.1633 7.69367 15.9506 7.943 15.694C8.19967 15.4373 8.39033 15.1403 8.515 14.803C8.647 14.4583 8.713 14.0806 8.713 13.67C8.713 13.3033 8.64333 12.988 8.504 12.724C8.372 12.46 8.18867 12.2326 7.954 12.042C7.71933 11.844 7.44433 11.679 7.129 11.547C6.81367 11.4076 6.47633 11.2793 6.117 11.162L5.743 16.64ZM5.38 3.92397C4.90333 3.96797 4.489 4.06331 4.137 4.20997C3.79233 4.35664 3.50633 4.53997 3.279 4.75997C3.05167 4.97997 2.883 5.22931 2.773 5.50797C2.663 5.77931 2.608 6.0653 2.608 6.36597C2.608 6.71797 2.67033 7.02597 2.795 7.28997C2.91967 7.54664 3.092 7.77397 3.312 7.97197C3.532 8.16997 3.78867 8.34231 4.082 8.48897C4.37533 8.63564 4.69433 8.76764 5.039 8.88497L5.38 3.92397ZM6.249 9.26997C6.777 9.43864 7.29767 9.61831 7.811 9.80897C8.32433 9.99964 8.78633 10.2453 9.197 10.546C9.60767 10.8466 9.93767 11.2243 10.187 11.679C10.4437 12.1263 10.572 12.6873 10.572 13.362C10.572 14.022 10.462 14.6416 10.242 15.221C10.022 15.8003 9.69933 16.31 9.274 16.75C8.856 17.19 8.339 17.5493 7.723 17.828C7.11433 18.0993 6.41767 18.2606 5.633 18.312L5.501 20.237C5.49367 20.3763 5.43867 20.4973 5.336 20.6C5.23333 20.71 5.105 20.765 4.951 20.765H4.225L4.39 18.29C3.50267 18.202 2.69233 17.982 1.959 17.63C1.233 17.2706 0.606 16.816 0.0780001 16.266L0.672 15.364C0.730667 15.2833 0.804 15.2173 0.892 15.166C0.98 15.1146 1.07533 15.089 1.178 15.089C1.31733 15.089 1.475 15.1586 1.651 15.298C1.827 15.4373 2.04333 15.595 2.3 15.771C2.564 15.947 2.872 16.1193 3.224 16.288C3.58333 16.4566 4.01233 16.5703 4.511 16.629L4.907 10.788C4.39367 10.634 3.88767 10.4616 3.389 10.271C2.89767 10.0803 2.454 9.82731 2.058 9.51197C1.66933 9.19664 1.354 8.80431 1.112 8.33497C0.877333 7.86564 0.76 7.27531 0.76 6.56397C0.76 6.02864 0.862667 5.50797 1.068 5.00197C1.28067 4.48864 1.58867 4.03397 1.992 3.63797C2.39533 3.24197 2.89033 2.91931 3.477 2.66997C4.06367 2.41331 4.73467 2.27031 5.49 2.24097L5.6 0.656972C5.60733 0.517639 5.65867 0.392972 5.754 0.282972C5.85667 0.172972 5.98867 0.117972 6.15 0.117972H6.876L6.733 2.28497C7.49567 2.38031 8.15567 2.57831 8.713 2.87897C9.27767 3.17964 9.77633 3.5463 10.209 3.97897L9.736 4.70497C9.58933 4.92497 9.42067 5.03497 9.23 5.03497C9.12733 5.03497 8.999 4.99097 8.845 4.90297C8.69833 4.80764 8.51867 4.69764 8.306 4.57297C8.10067 4.44831 7.855 4.32731 7.569 4.20997C7.29033 4.09264 6.97133 4.00464 6.612 3.94597L6.249 9.26997ZM23.6527 2.38397V3.26397C23.6527 3.51331 23.6234 3.71864 23.5647 3.87997C23.5134 4.04131 23.4621 4.17697 23.4107 4.28697L16.8767 17.454C16.7814 17.6446 16.6494 17.8096 16.4807 17.949C16.3121 18.081 16.0884 18.147 15.8097 18.147H14.4017L21.0237 5.14497C21.1191 4.96164 21.2181 4.79297 21.3207 4.63897C21.4234 4.48497 21.5334 4.33831 21.6507 4.19897H13.4227C13.2981 4.19897 13.1881 4.15131 13.0927 4.05597C12.9974 3.95331 12.9497 3.83964 12.9497 3.71497V2.38397H23.6527Z" fill="url(#paint0_linear_6_8029)"/>
<defs>
<linearGradient id="paint0_linear_6_8029" x1="12.5" y1="-4.85303" x2="12.5" y2="23.294" gradientUnits="userSpaceOnUse">
<stop stop-color="#53E88B"/>
<stop offset="1" stop-color="#15BE77"/>
</linearGradient>
</defs>
</svg>
