<svg width="33" height="10" viewBox="0 0 33 10" fill="none" xmlns="http://www.w3.org/2000/svg">
<path d="M2.636 4.86C2.968 4.86 3.26 4.816 3.512 4.728C3.768 4.64 3.982 4.518 4.154 4.362C4.33 4.202 4.462 4.012 4.55 3.792C4.638 3.572 4.682 3.33 4.682 3.066C4.682 2.518 4.512 2.09 4.172 1.782C3.836 1.474 3.324 1.32 2.636 1.32H1.256V4.86H2.636ZM2.636 0.401999C3.18 0.401999 3.652 0.466 4.052 0.594C4.456 0.717999 4.79 0.895999 5.054 1.128C5.318 1.36 5.514 1.64 5.642 1.968C5.774 2.296 5.84 2.662 5.84 3.066C5.84 3.466 5.77 3.832 5.63 4.164C5.49 4.496 5.284 4.782 5.012 5.022C4.744 5.262 4.41 5.45 4.01 5.586C3.614 5.718 3.156 5.784 2.636 5.784H1.256V9H0.0980001V0.401999H2.636ZM7.94984 4.14C8.14184 3.724 8.37784 3.4 8.65784 3.168C8.93784 2.932 9.27984 2.814 9.68384 2.814C9.81184 2.814 9.93384 2.828 10.0498 2.856C10.1698 2.884 10.2758 2.928 10.3678 2.988L10.2898 3.786C10.2658 3.886 10.2058 3.936 10.1098 3.936C10.0538 3.936 9.97184 3.924 9.86384 3.9C9.75584 3.876 9.63384 3.864 9.49784 3.864C9.30584 3.864 9.13384 3.892 8.98184 3.948C8.83384 4.004 8.69984 4.088 8.57984 4.2C8.46384 4.308 8.35784 4.444 8.26184 4.608C8.16984 4.768 8.08584 4.952 8.00984 5.16V9H6.93584V2.922H7.54784C7.66384 2.922 7.74384 2.944 7.78784 2.988C7.83184 3.032 7.86184 3.108 7.87784 3.216L7.94984 4.14ZM13.6228 2.826C14.0668 2.826 14.4668 2.9 14.8228 3.048C15.1788 3.196 15.4828 3.406 15.7348 3.678C15.9868 3.95 16.1788 4.28 16.3108 4.668C16.4468 5.052 16.5148 5.482 16.5148 5.958C16.5148 6.438 16.4468 6.87 16.3108 7.254C16.1788 7.638 15.9868 7.966 15.7348 8.238C15.4828 8.51 15.1788 8.72 14.8228 8.868C14.4668 9.012 14.0668 9.084 13.6228 9.084C13.1748 9.084 12.7708 9.012 12.4108 8.868C12.0548 8.72 11.7508 8.51 11.4988 8.238C11.2468 7.966 11.0528 7.638 10.9168 7.254C10.7848 6.87 10.7188 6.438 10.7188 5.958C10.7188 5.482 10.7848 5.052 10.9168 4.668C11.0528 4.28 11.2468 3.95 11.4988 3.678C11.7508 3.406 12.0548 3.196 12.4108 3.048C12.7708 2.9 13.1748 2.826 13.6228 2.826ZM13.6228 8.25C14.2228 8.25 14.6708 8.05 14.9668 7.65C15.2628 7.246 15.4108 6.684 15.4108 5.964C15.4108 5.24 15.2628 4.676 14.9668 4.272C14.6708 3.868 14.2228 3.666 13.6228 3.666C13.3188 3.666 13.0528 3.718 12.8248 3.822C12.6008 3.926 12.4128 4.076 12.2608 4.272C12.1128 4.468 12.0008 4.71 11.9248 4.998C11.8528 5.282 11.8168 5.604 11.8168 5.964C11.8168 6.684 11.9648 7.246 12.2608 7.65C12.5608 8.05 13.0148 8.25 13.6228 8.25ZM18.1485 9V3.834L17.4765 3.756C17.3885 3.736 17.3185 3.706 17.2665 3.666C17.2145 3.622 17.1885 3.56 17.1885 3.48V3.042H18.1485V2.706C18.1485 2.334 18.2065 1.994 18.3225 1.686C18.4385 1.374 18.6125 1.106 18.8445 0.882C19.0765 0.658 19.3645 0.484 19.7085 0.36C20.0565 0.236 20.4585 0.174 20.9145 0.174C21.0665 0.174 21.2225 0.184 21.3825 0.204C21.5425 0.224 21.6805 0.253999 21.7965 0.293999L21.7545 0.852C21.7505 0.892 21.7345 0.92 21.7065 0.935999C21.6825 0.952 21.6485 0.962 21.6045 0.965999C21.5605 0.97 21.5045 0.972 21.4365 0.972C21.3725 0.967999 21.2985 0.965999 21.2145 0.965999C20.5025 0.965999 19.9865 1.114 19.6665 1.41C19.3465 1.702 19.1865 2.144 19.1865 2.736V3.042H22.8585V9H21.7845V3.816H19.2165V9H18.1485ZM25.7117 0.162V9H24.6437V0.162H25.7117ZM31.5117 5.298C31.5117 5.05 31.4757 4.824 31.4037 4.62C31.3357 4.412 31.2337 4.234 31.0977 4.086C30.9657 3.934 30.8037 3.818 30.6117 3.738C30.4197 3.654 30.2017 3.612 29.9577 3.612C29.4457 3.612 29.0397 3.762 28.7397 4.062C28.4437 4.358 28.2597 4.77 28.1877 5.298H31.5117ZM32.3757 8.148C32.2437 8.308 32.0857 8.448 31.9017 8.568C31.7177 8.684 31.5197 8.78 31.3077 8.856C31.0997 8.932 30.8837 8.988 30.6597 9.024C30.4357 9.064 30.2137 9.084 29.9937 9.084C29.5737 9.084 29.1857 9.014 28.8297 8.874C28.4777 8.73 28.1717 8.522 27.9117 8.25C27.6557 7.974 27.4557 7.634 27.3117 7.23C27.1677 6.826 27.0957 6.362 27.0957 5.838C27.0957 5.414 27.1597 5.018 27.2877 4.65C27.4197 4.282 27.6077 3.964 27.8517 3.696C28.0957 3.424 28.3937 3.212 28.7457 3.06C29.0977 2.904 29.4937 2.826 29.9337 2.826C30.2977 2.826 30.6337 2.888 30.9417 3.012C31.2537 3.132 31.5217 3.308 31.7457 3.54C31.9737 3.768 32.1517 4.052 32.2797 4.392C32.4077 4.728 32.4717 5.112 32.4717 5.544C32.4717 5.712 32.4537 5.824 32.4177 5.88C32.3817 5.936 32.3137 5.964 32.2137 5.964H28.1517C28.1637 6.348 28.2157 6.682 28.3077 6.966C28.4037 7.25 28.5357 7.488 28.7037 7.68C28.8717 7.868 29.0717 8.01 29.3037 8.106C29.5357 8.198 29.7957 8.244 30.0837 8.244C30.3517 8.244 30.5817 8.214 30.7737 8.154C30.9697 8.09 31.1377 8.022 31.2777 7.95C31.4177 7.878 31.5337 7.812 31.6257 7.752C31.7217 7.688 31.8037 7.656 31.8717 7.656C31.9597 7.656 32.0277 7.69 32.0757 7.758L32.3757 8.148Z" fill="#09051C"/>
</svg>
